# xmcd CD database file
#
# Track frame offsets:
#	150
#	15664
#	35293
#	49076
#	70003
#	86454
#	106663
#	119586
#	132572
#	149818
#	166729
#
# Disc length: 2743 seconds
#
# Revision: 0
# Processed by: cddbd v1.5.2PL0 Copyright (c) Steve Scherf et al.
# Submitted via: CDex 1.51
#
DISCID=920ab50b
DTITLE=Bart Crow - The Parade
DYEAR=2015
DGENRE=Country
TTITLE0=Queen of the Heartache Parade
TTITLE1=Dear Music,
TTITLE2=Baby Won't You Come Back Home
TTITLE3=Vapor Trails
TTITLE4=Top of Rock Bottom
TTITLE5=One Night With You
TTITLE6=Here We Go Again
TTITLE7=Life Comes At You Fast
TTITLE8=Come Back Tomorrow
TTITLE9=City Limit Signs
TTITLE10=Bart Crow - Free Like Me
EXTD=YEAR: 2015
EXTT0=
EXTT1=
EXTT2=
EXTT3=
EXTT4=
EXTT5=
EXTT6=
EXTT7=
EXTT8=
EXTT9=
EXTT10=
PLAYORDER=
